<?xml version="1.0" standalone="no"?><!DOCTYPE svg PUBLIC "-//W3C//DTD SVG 1.1//EN" "http://www.w3.org/Graphics/SVG/1.1/DTD/svg11.dtd"><svg t="1583810452612" class="icon" viewBox="0 0 1024 1024" version="1.1" xmlns="http://www.w3.org/2000/svg" p-id="4598" xmlns:xlink="http://www.w3.org/1999/xlink" width="200" height="200"><defs><style type="text/css"></style></defs><path d="M557.52113 12.229099l364.072535 210.446927A91.018134 91.018134 0 0 1 967.070225 301.471725v421.056387a91.018134 91.018134 0 0 1-45.47656 78.795699l-364.072535 210.446928a91.018134 91.018134 0 0 1-91.083146 0L102.365449 801.307558A91.018134 91.018134 0 0 1 56.888889 722.528112V301.471725a91.018134 91.018134 0 0 1 45.47656-78.795699L466.437984 12.212846a91.018134 91.018134 0 0 1 91.083146 0zM535.221688 650.932598h46.435501c12.823805 0 23.209624-10.19078 23.209624-22.754533 0-12.580006-10.402072-22.754533-23.209624-22.754533h-46.435501v-45.053977c0-0.487597-0.016253-0.958941-0.04876-1.430284C613.919867 547.984588 674.511939 481.996441 674.511939 402.176789 674.511939 314.685608 601.697432 243.821489 511.979557 243.821489s-162.532381 70.864118-162.532381 158.3553c0 79.819653 60.592072 145.791546 139.355263 156.762482-0.032506 0.471344-0.04876 0.942688-0.048759 1.430284V741.170577c0 12.563753 10.402072 22.754533 23.225877 22.754533s23.225877-10.19078 23.225877-22.754533v-22.429469h69.645126c12.840058 0 23.225877-10.207034 23.225877-22.770787 0-12.580006-10.402072-22.754533-23.225877-22.754533H535.221688v-22.28319zM511.979557 515.006768c-64.151531 0-116.09688-50.547571-116.09688-112.829979 0-62.282409 51.945349-112.829979 116.09688-112.82998 64.151531 0 116.09688 50.547571 116.09688 112.82998 0 62.282409-51.945349 112.829979-116.09688 112.829979z" p-id="4599"></path></svg>