<?xml version="1.0" standalone="no"?><!DOCTYPE svg PUBLIC "-//W3C//DTD SVG 1.1//EN" "http://www.w3.org/Graphics/SVG/1.1/DTD/svg11.dtd"><svg t="1609560045995" class="icon" viewBox="0 0 1024 1024" version="1.1" xmlns="http://www.w3.org/2000/svg" p-id="3016" xmlns:xlink="http://www.w3.org/1999/xlink" width="200" height="200"><defs><style type="text/css"></style></defs><path d="M313.107692 551.384615c-27.569231-41.353846-41.353846-88.615385-41.353846-141.784615 0-90.584615 37.415385-165.415385 96.492308-210.707692-19.692308-35.446154-59.076923-61.046154-110.276923-61.046154-86.646154 0-135.876923 70.892308-135.876923 151.630769 0 43.323077 13.784615 80.738462 43.323077 106.338462 15.753846 15.753846 29.538462 35.446154 29.538461 55.138461s-7.876923 39.384615-57.107692 61.046154c-70.892308 31.507692-135.876923 74.830769-137.846154 139.815385 1.969231 43.323077 29.538462 76.8 70.892308 76.8h64.984615c9.846154 0 19.692308-5.907692 25.6-15.753847 31.507692-57.107692 90.584615-92.553846 139.815385-118.153846 17.723077-7.876923 21.661538-29.538462 11.815384-43.323077z m575.015385-39.384615c-49.230769-21.661538-57.107692-39.384615-57.107692-61.046154s13.784615-41.353846 29.538461-55.138461c29.538462-27.569231 43.323077-63.015385 43.323077-106.338462 0-80.738462-47.261538-151.630769-135.876923-151.630769-51.2 0-90.584615 25.6-112.246154 61.046154 59.076923 45.292308 96.492308 120.123077 96.492308 210.707692 0 53.169231-13.784615 100.430769-41.353846 141.784615-9.846154 15.753846-3.938462 35.446154 11.815384 43.323077 49.230769 23.630769 108.307692 61.046154 139.815385 118.153846 5.907692 9.846154 15.753846 15.753846 25.6 15.753847h64.984615c41.353846 0 68.923077-33.476923 68.923077-76.8 1.969231-64.984615-63.015385-108.307692-133.907692-139.815385z m-244.184615 143.753846c-53.169231-23.630769-63.015385-45.292308-63.015385-66.953846 0-23.630769 15.753846-45.292308 33.476923-61.046154 31.507692-29.538462 49.230769-70.892308 49.230769-118.153846 0-88.615385-53.169231-165.415385-149.661538-165.415385s-149.661538 76.8-149.661539 165.415385c0 47.261538 17.723077 88.615385 49.23077 118.153846 17.723077 17.723077 33.476923 39.384615 33.476923 61.046154 0 23.630769-7.876923 43.323077-63.015385 66.953846-78.769231 33.476923-153.6 70.892308-155.569231 141.784616 0 47.261538 35.446154 86.646154 80.738462 86.646153h409.6c45.292308 0 80.738462-39.384615 80.738461-86.646153-1.969231-68.923077-76.8-106.338462-155.56923-141.784616z" p-id="3017"></path></svg>