<?xml version="1.0" standalone="no"?><!DOCTYPE svg PUBLIC "-//W3C//DTD SVG 1.1//EN" "http://www.w3.org/Graphics/SVG/1.1/DTD/svg11.dtd"><svg t="1583290669454" class="icon" viewBox="0 0 1024 1024" version="1.1" xmlns="http://www.w3.org/2000/svg" p-id="2099" xmlns:xlink="http://www.w3.org/1999/xlink" width="200" height="200"><defs><style type="text/css"></style></defs><path d="M844.8 486.4c25.6 0 44.8 6.4 70.4 12.8 19.2 6.4 38.4 19.2 57.6 38.4 19.2 19.2 32 38.4 38.4 57.6 6.4 25.6 12.8 44.8 12.8 70.4 0 25.6-6.4 51.2-12.8 70.4-6.4 19.2-19.2 38.4-38.4 57.6-19.2 19.2-38.4 32-57.6 38.4-19.2 6.4-44.8 12.8-70.4 12.8-25.6 0-44.8-6.4-64-12.8-19.2-6.4-38.4-19.2-51.2-32v147.2c0 19.2-6.4 38.4-19.2 51.2s-38.4 25.6-57.6 25.6h-576c-19.2 0-38.4-6.4-51.2-19.2s-25.6-38.4-25.6-57.6v-128c6.4-19.2 12.8-25.6 19.2-38.4 12.8-6.4 25.6-6.4 44.8 6.4 6.4 6.4 19.2 6.4 19.2 6.4 19.2 12.8 38.4 12.8 64 12.8s38.4-6.4 57.6-12.8c19.2 0 38.4-12.8 51.2-25.6 12.8-12.8 25.6-32 32-44.8s12.8-38.4 12.8-57.6-6.4-44.8-12.8-64c-6.4-19.2-19.2-32-32-44.8s-32-25.6-51.2-32C192 512 166.4 512 147.2 512c-19.2 0-38.4 0-57.6 12.8-6.4 0-6.4 0-12.8 6.4-6.4 0-19.2 6.4-25.6 6.4-12.8 6.4-19.2 6.4-25.6 6.4-6.4 0-12.8-6.4-19.2-12.8 0-6.4-6.4-19.2-6.4-32V377.6c0-25.6 6.4-38.4 25.6-57.6 12.8-12.8 32-25.6 51.2-25.6H256c-6.4-12.8-19.2-25.6-25.6-44.8-6.4-19.2-12.8-38.4-12.8-64s6.4-51.2 12.8-70.4c12.8-25.6 25.6-44.8 44.8-57.6s38.4-32 57.6-38.4c19.2-12.8 44.8-19.2 70.4-19.2s44.8 6.4 70.4 19.2c19.2 6.4 38.4 19.2 57.6 38.4s32 38.4 38.4 57.6c6.4 19.2 12.8 44.8 12.8 70.4 0 44.8-12.8 83.2-38.4 115.2h108.8c19.2 0 38.4 6.4 51.2 25.6s19.2 32 19.2 51.2v153.6c12.8-12.8 32-25.6 51.2-32 25.6-6.4 51.2-12.8 70.4-12.8z" p-id="2100"></path></svg>