<?xml version="1.0" standalone="no"?><!DOCTYPE svg PUBLIC "-//W3C//DTD SVG 1.1//EN" "http://www.w3.org/Graphics/SVG/1.1/DTD/svg11.dtd"><svg t="1584078257471" class="icon" viewBox="0 0 1024 1024" version="1.1" xmlns="http://www.w3.org/2000/svg" p-id="3534" xmlns:xlink="http://www.w3.org/1999/xlink" width="200" height="200"><defs><style type="text/css"></style></defs><path d="M512 1024A512 512 0 1 0 0 512a512 512 0 0 0 512 512z m0-972.8A460.8 460.8 0 1 1 51.2 512 460.8 460.8 0 0 1 512 51.2z" p-id="3535"></path><path d="M456.704 755.456v-41.728c-118.528 0-191.488-40.704-191.488-69.632v-98.304a368.384 368.384 0 0 0 191.488 45.824v-41.728c-118.528 0-191.488-40.704-191.488-69.632v-98.56a368.384 368.384 0 0 0 191.488 45.824 367.872 367.872 0 0 0 191.488-45.824v54.784h41.472v-120.064c0-72.192-120.064-111.104-232.96-111.104s-232.96 38.912-232.96 111.104v327.68c0 72.704 120.064 111.36 232.96 111.36z m0-508.416c118.528 0 191.488 40.704 191.488 69.632s-72.704 69.632-191.488 69.632-191.488-40.704-191.488-69.632 72.96-69.888 191.488-69.888z" p-id="3536"></path><path d="M486.4 529.152v210.688c0 39.168 53.504 79.36 156.672 79.36s156.16-39.168 157.184-76.8v-213.248c0-39.168-54.016-78.848-157.184-78.848S486.4 489.984 486.4 529.152z m272.128 210.688c0 11.264-39.424 37.376-115.456 37.376s-115.712-25.6-115.712-37.376v-51.2a244.736 244.736 0 0 0 115.712 23.808 244.736 244.736 0 0 0 115.456-23.808z m0-105.216c0 11.264-39.424 37.376-115.456 37.376s-115.712-25.6-115.712-37.376v-51.2a244.736 244.736 0 0 0 115.712 23.808 244.736 244.736 0 0 0 115.456-23.808z m0-105.216c0 11.264-39.424 37.376-115.456 37.376s-115.712-25.6-115.712-37.376 39.424-37.376 115.712-37.376 115.456 26.112 115.456 37.12z" p-id="3537"></path></svg>